<?xml version="1.0" standalone="no"?>
<!DOCTYPE svg PUBLIC "-//W3C//DTD SVG 20010904//EN"
 "http://www.w3.org/TR/2001/REC-SVG-20010904/DTD/svg10.dtd">
<svg version="1.0" xmlns="http://www.w3.org/2000/svg"
 width="123.000000pt" height="123.000000pt" viewBox="0 0 123.000000 123.000000"
 preserveAspectRatio="xMidYMid meet">
<metadata>
Created by potrace 1.14, written by Peter Selinger 2001-2017
</metadata>
<g transform="translate(0.000000,123.000000) scale(0.100000,-0.100000)"
fill="#000000" stroke="none">
<path d="M574 1196 c-110 -94 -291 -195 -414 -232 l-62 -18 5 -151 c3 -82 7
-159 10 -170 3 -11 10 -40 16 -65 53 -229 211 -428 414 -523 32 -15 65 -27 74
-27 31 0 176 86 234 138 121 110 204 245 243 400 26 99 28 114 31 258 l4 140
-62 19 c-125 36 -290 128 -408 226 l-46 38 -39 -33z m116 -191 c90 -61 171
-105 256 -136 l57 -21 -7 -91 c-6 -93 -15 -111 -49 -103 -11 3 -16 2 -13 -1 8
-9 -24 -43 -40 -43 -7 0 -21 10 -31 23 -10 12 -25 23 -34 25 -19 3 -69 -51
-70 -76 0 -9 -1 -37 -2 -62 -1 -25 -6 -50 -10 -57 -12 -19 31 -41 93 -48 30
-4 56 -8 58 -10 5 -4 -85 -119 -109 -139 -60 -50 -113 -87 -143 -101 -32 -16
-36 -15 -78 6 -79 40 -163 115 -215 192 -14 20 -23 40 -20 43 3 3 28 8 57 10
64 6 103 20 98 37 -3 6 -19 13 -36 15 -29 3 -30 5 -20 27 6 14 14 22 18 20 18
-11 -9 86 -31 111 -29 34 -39 37 -95 35 -16 0 -40 -10 -52 -21 -27 -25 -31
-17 -40 68 -11 100 -9 134 8 143 8 4 58 28 110 52 89 41 233 127 246 148 8 13
6 14 94 -46z"/>
<path d="M610 887 c0 -36 -25 -45 -110 -40 -36 3 -76 0 -90 -6 -22 -9 -18 -10
25 -8 77 2 175 -13 175 -28 0 -7 -7 -12 -16 -11 -25 2 -29 -24 -5 -31 23 -6
28 -19 10 -25 -7 -2 -11 -58 -10 -168 0 -141 -3 -169 -18 -195 -10 -16 -22
-30 -27 -31 -85 -7 -112 -56 -41 -75 52 -14 241 -6 262 11 23 19 3 43 -47 58
-65 19 -73 44 -74 230 0 103 3 152 10 152 6 0 2 7 -9 15 -19 15 -19 15 3 31
25 18 19 38 -9 31 -20 -5 -24 1 -11 18 10 14 151 23 195 12 15 -4 27 -3 27 2
0 14 -78 24 -142 18 -54 -4 -97 11 -85 30 3 5 2 15 -4 23 -6 11 -9 8 -9 -13z"/>
<path d="M335 830 c-8 -13 8 -18 29 -10 19 6 19 7 -2 12 -12 4 -24 2 -27 -2z"/>
<path d="M876 816 c21 -15 30 -14 19 3 -3 6 -14 11 -23 11 -13 0 -13 -2 4 -14z"/>
<path d="M334 763 c-1 -16 1 -22 3 -14 5 11 7 11 14 0 5 -8 9 -9 9 -3 0 5 -6
18 -12 27 -12 15 -13 14 -14 -10z"/>
<path d="M888 785 c-8 -9 4 -65 13 -59 5 3 9 0 9 -7 0 -7 2 -10 5 -7 3 3 -1
18 -9 33 -8 16 -13 32 -10 37 6 9 0 11 -8 3z"/>
<path d="M892 685 c0 -16 2 -22 5 -12 2 9 2 23 0 30 -3 6 -5 -1 -5 -18z"/>
<path d="M330 690 c0 -5 5 -10 11 -10 5 0 7 5 4 10 -3 6 -8 10 -11 10 -2 0 -4
-4 -4 -10z"/>
<path d="M891 634 c0 -11 3 -14 6 -6 3 7 2 16 -1 19 -3 4 -6 -2 -5 -13z"/>
</g>
</svg>
